<svg width="30" height="42" viewBox="0 0 30 42" fill="none" xmlns="http://www.w3.org/2000/svg">
<path d="M17 2C17 0.89543 16.1046 -2.22354e-08 15 0C13.8954 2.22351e-08 13 0.895431 13 2L17 2ZM13.5858 41.4142C14.3668 42.1953 15.6332 42.1953 16.4142 41.4142L29.1421 28.6863C29.9232 27.9052 29.9232 26.6389 29.1421 25.8579C28.3611 25.0768 27.0948 25.0768 26.3137 25.8579L15 37.1716L3.68629 25.8579C2.90524 25.0768 1.63891 25.0768 0.857862 25.8579C0.0768139 26.6389 0.0768139 27.9052 0.857862 28.6863L13.5858 41.4142ZM13 2L13 40L17 40L17 2L13 2Z" fill="#D9D3C2"/>
</svg>
