<svg width="46" height="62" viewBox="0 0 46 62" fill="none" xmlns="http://www.w3.org/2000/svg">
<path d="M20 3.50001C20 1.84315 21.3431 0.500003 23 0.5C24.6568 0.499997 26 1.84314 26 3.49999L20 3.50001ZM25.1214 61.1213C23.9499 62.2929 22.0504 62.2929 20.8788 61.1213L1.78687 42.0295C0.615299 40.8579 0.615295 38.9584 1.78687 37.7868C2.95844 36.6153 4.85793 36.6153 6.02951 37.7868L23.0001 54.7574L39.9706 37.7868C41.1422 36.6152 43.0417 36.6152 44.2133 37.7868C45.3848 38.9583 45.3849 40.8578 44.2133 42.0294L25.1214 61.1213ZM26 3.49999L26.0001 59L20.0001 59L20 3.50001L26 3.49999Z" fill="#E9E6DA"/>
</svg>
