<svg width="72" height="72" viewBox="0 0 72 72" fill="none" xmlns="http://www.w3.org/2000/svg">
<path fill-rule="evenodd" clip-rule="evenodd" d="M36 0C16.1178 0 0 16.1178 0 36V64C0 68.4183 3.58172 72 8 72H64C68.4183 72 72 68.4183 72 64V8C72 3.58172 68.4183 0 64 0H36ZM24.5383 50.0741C24.3477 49.2421 24.6423 48.1847 25.4223 46.9021L28.2337 42.3001H39.589C39.5814 42.5099 39.5739 42.7179 39.5664 42.9241C39.5144 44.3454 39.471 45.6021 39.4363 46.6941C39.4017 47.7861 39.3757 48.6094 39.3584 49.1641C39.341 49.8227 39.211 50.3601 38.9683 50.7761C38.743 51.1747 38.3877 51.4434 37.9024 51.5821L36.1084 51.9461C35.779 52.0674 35.519 52.2147 35.3284 52.3881C35.155 52.5614 35.0684 52.7867 35.0684 53.0641C35.0684 53.3241 35.155 53.5494 35.3284 53.7401C35.5017 53.9134 35.7877 54.0001 36.1863 54.0001H48.0684C48.519 54.0001 48.8657 53.9047 49.1084 53.7141C49.351 53.5061 49.4724 53.2547 49.4724 52.9601C49.4724 52.5441 49.2383 52.2234 48.7704 51.9981C48.1637 51.7727 47.7043 51.5474 47.3923 51.3221C47.0804 51.0794 46.8724 50.7761 46.7683 50.4121C46.6643 50.0481 46.6037 49.5887 46.5863 49.0341C46.5863 48.5834 46.595 47.8381 46.6124 46.7981C46.6297 45.7581 46.6557 44.5274 46.6903 43.1061C46.725 41.6674 46.7597 40.1421 46.7943 38.5301L46.8983 33.6421C46.9504 32.0127 46.9937 30.4701 47.0284 29.0141C47.063 27.5581 47.0977 26.2841 47.1324 25.1921C47.167 24.0827 47.1843 23.2594 47.1843 22.7221C47.219 21.6474 47.453 20.8327 47.8864 20.2781C48.3197 19.7061 48.909 19.3247 49.6544 19.1341C49.9317 19.0127 50.131 18.8741 50.2524 18.7181C50.3737 18.5447 50.4344 18.3454 50.4344 18.1201C50.4344 17.8081 50.287 17.5481 49.9923 17.3401C49.6977 17.1321 49.195 17.0281 48.4844 17.0281C46.231 17.0281 44.0383 17.7301 41.9063 19.1341C39.7917 20.5207 37.755 22.6961 35.7963 25.6601L22.8743 46.5381C22.077 47.8901 21.2883 48.9994 20.5084 49.8661C19.7457 50.7327 19.0177 51.3047 18.3243 51.5821C17.787 51.8421 17.423 52.0761 17.2323 52.2841C17.0243 52.4921 16.9203 52.7434 16.9203 53.0381C16.9203 53.3501 17.033 53.5927 17.2583 53.7661C17.4837 53.9221 17.813 54.0001 18.2463 54.0001H26.6964C27.1297 54.0001 27.4677 53.9047 27.7104 53.7141C27.9704 53.5234 28.1003 53.2547 28.1003 52.9081C28.1003 52.7347 28.0397 52.5701 27.9184 52.4141C27.797 52.2407 27.5977 52.1021 27.3204 51.9981L26.2024 51.7381C25.301 51.4607 24.7463 50.9061 24.5383 50.0741ZM39.6546 40.4281C39.6772 39.7684 39.6998 39.0924 39.7224 38.4001C39.7917 36.7881 39.8523 35.1761 39.9044 33.5641C39.9563 31.9347 39.9997 30.3834 40.0344 28.9101C40.0864 27.4367 40.1297 26.1194 40.1644 24.9581C40.1792 24.4597 40.1909 24.006 40.1994 23.5971C39.945 23.8526 39.6647 24.1677 39.3584 24.5421C38.8904 25.1141 38.327 25.8854 37.6684 26.8561L29.3773 40.4281H39.6546Z" fill="#055F4F"/>
</svg>
